<svg data-v-fde0c5aa="" xmlns="http://www.w3.org/2000/svg" viewBox="0 0 300 300" class="iconLeft"><!----><defs data-v-fde0c5aa=""><!----></defs><rect data-v-fde0c5aa="" fill="transparent" x="0" y="0" width="300px" height="300px" class="logo-background-square"></rect><defs data-v-fde0c5aa=""><!----></defs><g data-v-fde0c5aa="" id="1892e609-f818-439b-b548-27132c7c0107" fill="#000000" transform="matrix(2.940303255200929,0,0,2.940303255200929,111.77931475602172,123.5078669976576)"><path d="M6.52 8.88L6.52 8.88Q6.47 8.89 6.47 8.93L6.47 8.93L6.47 8.93Q6.47 8.96 6.52 8.99L6.52 8.99L6.52 8.99Q7.92 9.66 7.92 11.28L7.92 11.28L7.92 11.28Q7.92 12.61 7.04 13.31L7.04 13.31L7.04 13.31Q6.15 14 4.72 14L4.72 14L1.25 14L1.25 14Q1.02 14 1.02 13.78L1.02 13.78L1.02 4.42L1.02 4.42Q1.02 4.20 1.25 4.20L1.25 4.20L4.61 4.20L4.61 4.20Q6.13 4.20 6.96 4.86L6.96 4.86L6.96 4.86Q7.78 5.52 7.78 6.85L7.78 6.85L7.78 6.85Q7.78 8.29 6.52 8.88L6.52 8.88ZM2.73 5.60L2.73 5.60Q2.65 5.60 2.65 5.68L2.65 5.68L2.65 8.25L2.65 8.25Q2.65 8.33 2.73 8.33L2.73 8.33L4.61 8.33L4.61 8.33Q5.35 8.33 5.78 7.97L5.78 7.97L5.78 7.97Q6.20 7.62 6.20 6.99L6.20 6.99L6.20 6.99Q6.20 6.34 5.78 5.97L5.78 5.97L5.78 5.97Q5.35 5.60 4.61 5.60L4.61 5.60L2.73 5.60ZM4.72 12.59L4.72 12.59Q5.45 12.59 5.87 12.19L5.87 12.19L5.87 12.19Q6.30 11.80 6.30 11.13L6.30 11.13L6.30 11.13Q6.30 10.44 5.87 10.06L5.87 10.06L5.87 10.06Q5.43 9.67 4.69 9.67L4.69 9.67L2.73 9.67L2.73 9.67Q2.65 9.67 2.65 9.76L2.65 9.76L2.65 12.50L2.65 12.50Q2.65 12.59 2.73 12.59L2.73 12.59L4.72 12.59ZM10.50 5.95L10.50 5.95Q10.04 5.95 9.74 5.66L9.74 5.66L9.74 5.66Q9.45 5.38 9.45 4.93L9.45 4.93L9.45 4.93Q9.45 4.48 9.74 4.20L9.74 4.20L9.74 4.20Q10.04 3.92 10.50 3.92L10.50 3.92L10.50 3.92Q10.96 3.92 11.25 4.20L11.25 4.20L11.25 4.20Q11.54 4.48 11.54 4.93L11.54 4.93L11.54 4.93Q11.54 5.38 11.25 5.66L11.25 5.66L11.25 5.66Q10.96 5.95 10.50 5.95L10.50 5.95ZM9.91 14L9.91 14Q9.69 14 9.69 13.78L9.69 13.78L9.69 7.07L9.69 7.07Q9.69 6.85 9.91 6.85L9.91 6.85L11.09 6.85L11.09 6.85Q11.31 6.85 11.31 7.07L11.31 7.07L11.31 13.78L11.31 13.78Q11.31 14 11.09 14L11.09 14L9.91 14ZM15.82 14.08L15.82 14.08Q14.94 14.08 14.27 13.82L14.27 13.82L14.27 13.82Q13.61 13.57 13.24 13.11L13.24 13.11L13.24 13.11Q12.88 12.66 12.88 12.10L12.88 12.10L12.88 12.03L12.88 12.03Q12.88 11.80 13.10 11.80L13.10 11.80L14.22 11.80L14.22 11.80Q14.45 11.80 14.45 11.90L14.45 11.90L14.45 12.00L14.45 12.00Q14.45 12.35 14.83 12.61L14.83 12.61L14.83 12.61Q15.22 12.87 15.81 12.87L15.81 12.87L15.81 12.87Q16.37 12.87 16.72 12.63L16.72 12.63L16.72 12.63Q17.07 12.40 17.07 12.05L17.07 12.05L17.07 12.05Q17.07 11.73 16.78 11.57L16.78 11.57L16.78 11.57Q16.49 11.41 15.85 11.23L15.85 11.23L15.32 11.06L15.32 11.06Q14.60 10.85 14.11 10.61L14.11 10.61L14.11 10.61Q13.62 10.37 13.29 9.96L13.29 9.96L13.29 9.96Q12.95 9.55 12.95 8.90L12.95 8.90L12.95 8.90Q12.95 7.92 13.71 7.34L13.71 7.34L13.71 7.34Q14.48 6.76 15.74 6.76L15.74 6.76L15.74 6.76Q16.59 6.76 17.23 7.04L17.23 7.04L17.23 7.04Q17.88 7.31 18.23 7.79L18.23 7.79L18.23 7.79Q18.59 8.27 18.59 8.89L18.59 8.89L18.59 8.89Q18.59 8.96 18.53 9.01L18.53 9.01L18.53 9.01Q18.47 9.06 18.37 9.06L18.37 9.06L17.29 9.06L17.29 9.06Q17.07 9.06 17.07 8.97L17.07 8.97L17.07 8.89L17.07 8.89Q17.07 8.53 16.71 8.28L16.71 8.28L16.71 8.28Q16.35 8.04 15.74 8.04L15.74 8.04L15.74 8.04Q15.19 8.04 14.85 8.24L14.85 8.24L14.85 8.24Q14.50 8.44 14.50 8.81L14.50 8.81L14.50 8.81Q14.50 9.14 14.83 9.32L14.83 9.32L14.83 9.32Q15.15 9.49 15.90 9.70L15.90 9.70L16.23 9.79L16.23 9.79Q16.98 10.01 17.49 10.23L17.49 10.23L17.49 10.23Q17.99 10.46 18.34 10.88L18.34 10.88L18.34 10.88Q18.69 11.30 18.69 11.96L18.69 11.96L18.69 11.96Q18.69 12.95 17.91 13.52L17.91 13.52L17.91 13.52Q17.12 14.08 15.82 14.08L15.82 14.08ZM27.72 6.73L27.72 6.73Q28.80 6.73 29.41 7.38L29.41 7.38L29.41 7.38Q30.02 8.04 30.02 9.20L30.02 9.20L30.02 13.78L30.02 13.78Q30.02 14 29.79 14L29.79 14L28.63 14L28.63 14Q28.41 14 28.41 13.78L28.41 13.78L28.41 9.53L28.41 9.53Q28.41 8.89 28.06 8.51L28.06 8.51L28.06 8.51Q27.72 8.13 27.15 8.13L27.15 8.13L27.15 8.13Q26.57 8.13 26.21 8.51L26.21 8.51L26.21 8.51Q25.84 8.89 25.84 9.52L25.84 9.52L25.84 13.78L25.84 13.78Q25.84 14 25.62 14L25.62 14L24.46 14L24.46 14Q24.23 14 24.23 13.78L24.23 13.78L24.23 9.53L24.23 9.53Q24.23 8.89 23.88 8.51L23.88 8.51L23.88 8.51Q23.53 8.13 22.96 8.13L22.96 8.13L22.96 8.13Q22.43 8.13 22.09 8.44L22.09 8.44L22.09 8.44Q21.74 8.75 21.69 9.28L21.69 9.28L21.69 13.78L21.69 13.78Q21.69 14 21.46 14L21.46 14L20.29 14L20.29 14Q20.06 14 20.06 13.78L20.06 13.78L20.06 7.07L20.06 7.07Q20.06 6.85 20.29 6.85L20.29 6.85L21.46 6.85L21.46 6.85Q21.69 6.85 21.69 7.07L21.69 7.07L21.69 7.45L21.69 7.45Q21.69 7.50 21.72 7.52L21.72 7.52L21.72 7.52Q21.76 7.53 21.78 7.48L21.78 7.48L21.78 7.48Q22.39 6.73 23.55 6.73L23.55 6.73L23.55 6.73Q24.23 6.73 24.75 7.01L24.75 7.01L24.75 7.01Q25.26 7.28 25.54 7.81L25.54 7.81L25.54 7.81Q25.56 7.85 25.60 7.85L25.60 7.85L25.60 7.85Q25.63 7.85 25.65 7.80L25.65 7.80L25.65 7.80Q25.97 7.27 26.52 7L26.52 7L26.52 7Q27.06 6.73 27.72 6.73L27.72 6.73ZM35.90 7.07L35.90 7.07Q35.90 6.85 36.12 6.85L36.12 6.85L37.28 6.85L37.28 6.85Q37.51 6.85 37.51 7.07L37.51 7.07L37.51 13.78L37.51 13.78Q37.51 14 37.28 14L37.28 14L36.12 14L36.12 14Q35.90 14 35.90 13.78L35.90 13.78L35.90 13.41L35.90 13.41Q35.90 13.36 35.86 13.34L35.86 13.34L35.86 13.34Q35.83 13.33 35.80 13.38L35.80 13.38L35.80 13.38Q35.24 14.10 34.09 14.10L34.09 14.10L34.09 14.10Q33.03 14.10 32.31 13.48L32.31 13.48L32.31 13.48Q31.58 12.87 31.58 11.73L31.58 11.73L31.58 7.07L31.58 7.07Q31.58 6.85 31.81 6.85L31.81 6.85L32.98 6.85L32.98 6.85Q33.21 6.85 33.21 7.07L33.21 7.07L33.21 11.27L33.21 11.27Q33.21 11.93 33.55 12.32L33.55 12.32L33.55 12.32Q33.89 12.71 34.51 12.71L34.51 12.71L34.51 12.71Q35.14 12.71 35.52 12.32L35.52 12.32L35.52 12.32Q35.90 11.93 35.90 11.27L35.90 11.27L35.90 7.07ZM43.04 7.94L43.04 7.94Q43.04 8.16 42.81 8.16L42.81 8.16L41.45 8.16L41.45 8.16Q41.37 8.16 41.37 8.25L41.37 8.25L41.37 11.55L41.37 11.55Q41.37 12.10 41.60 12.33L41.60 12.33L41.60 12.33Q41.83 12.57 42.34 12.57L42.34 12.57L42.70 12.57L42.70 12.57Q42.92 12.57 42.92 12.80L42.92 12.80L42.92 13.73L42.92 13.73Q42.92 13.96 42.70 13.97L42.70 13.97L42.03 13.99L42.03 13.99Q40.92 13.99 40.38 13.60L40.38 13.60L40.38 13.60Q39.83 13.22 39.82 12.17L39.82 12.17L39.82 8.25L39.82 8.25Q39.82 8.16 39.73 8.16L39.73 8.16L39.00 8.16L39.00 8.16Q38.78 8.16 38.78 7.94L38.78 7.94L38.78 7.07L38.78 7.07Q38.78 6.85 39.00 6.85L39.00 6.85L39.73 6.85L39.73 6.85Q39.82 6.85 39.82 6.76L39.82 6.76L39.82 5.19L39.82 5.19Q39.82 4.97 40.04 4.97L40.04 4.97L41.15 4.97L41.15 4.97Q41.37 4.97 41.37 5.19L41.37 5.19L41.37 6.76L41.37 6.76Q41.37 6.85 41.45 6.85L41.45 6.85L42.81 6.85L42.81 6.85Q43.04 6.85 43.04 7.07L43.04 7.07L43.04 7.94ZM47.91 6.73L47.91 6.73Q49.06 6.73 49.73 7.41L49.73 7.41L49.73 7.41Q50.41 8.08 50.41 9.24L50.41 9.24L50.41 13.78L50.41 13.78Q50.41 14 50.19 14L50.19 14L49.01 14L49.01 14Q48.79 14 48.79 13.78L48.79 13.78L48.79 9.58L48.79 9.58Q48.79 8.93 48.42 8.53L48.42 8.53L48.42 8.53Q48.05 8.13 47.45 8.13L47.45 8.13L47.45 8.13Q46.84 8.13 46.47 8.53L46.47 8.53L46.47 8.53Q46.10 8.92 46.10 9.56L46.10 9.56L46.10 13.78L46.10 13.78Q46.10 14 45.88 14L45.88 14L44.70 14L44.70 14Q44.48 14 44.48 13.78L44.48 13.78L44.48 4.42L44.48 4.42Q44.48 4.20 44.70 4.20L44.70 4.20L45.88 4.20L45.88 4.20Q46.10 4.20 46.10 4.42L46.10 4.42L46.10 7.45L46.10 7.45Q46.10 7.50 46.13 7.52L46.13 7.52L46.13 7.52Q46.16 7.53 46.19 7.49L46.19 7.49L46.19 7.49Q46.77 6.73 47.91 6.73L47.91 6.73Z"></path></g><defs data-v-fde0c5aa=""><linearGradient data-v-fde0c5aa="" gradientTransform="rotate(25)" id="910c1cee-758d-462e-9725-69dc0bc0bff0" x1="0%" y1="0%" x2="100%" y2="0%"><stop data-v-fde0c5aa="" offset="0%" stop-color="#30092A" stop-opacity="1"></stop><stop data-v-fde0c5aa="" offset="100%" stop-color="#CB3C61" stop-opacity="1"></stop></linearGradient></defs><g data-v-fde0c5aa="" id="ec9c42b9-da87-4ff4-9430-395190b98c2c" stroke="none" fill="url(#910c1cee-758d-462e-9725-69dc0bc0bff0)" transform="matrix(0.686419776369649,0,0,0.686419776369649,40.00064377903184,127.55078397355891)"><path d="M89.91 20.61a1.19 1.19 0 0 0 .09-.33v-.05l-2.66-12.7-.05-.08c-.05-.08 0-.05 0-.08a1.19 1.19 0 0 0-.13-.15 1.14 1.14 0 0 0-.16-.29s0-.08-.05-.11a1.14 1.14 0 0 0-.11 0 1.12 1.12 0 0 0-.17-.14.81.81 0 0 1-.42-.18L58.72 1.72H58.57L29.76 0a1.15 1.15 0 0 0-.29.1 1.19 1.19 0 0 0-.3 0L.8 12.24a1.18 1.18 0 0 0-.2.2 1.35 1.35 0 0 0-.26.13 1.16 1.16 0 0 0 0 .12.87.87 0 0 0-.2.55 1.17 1.17 0 0 0-.1.27H0v.12a1.08 1.08 0 0 0 0 .09l5.22 21.8a1.24 1.24 0 0 0 .26.4 1.18 1.18 0 0 0 .1.24L30.66 60.8h.05v.05h.05l.07.06.17.1.06.06a1.36 1.36 0 0 0 .34.07h.12l20.28 1.09 13.36 3.17a1.26 1.26 0 0 0 .31 0 1.34 1.34 0 0 0 .32 0l11.73-2.87a1055.39 1055.39 0 0 0 .66-.48 1.15 1.15 0 0 0 .18-.33 1.21 1.21 0 0 0 .14-.24l3.67-20.09 7.75-20.46a1.19 1.19 0 0 0-.01-.32zM76.05 60.16l-7.58 1.86 10-14.92zm-16-37.18l-3.85.55 4.8-4.24zm-2.09 3l-3.4 4.19-.91-3.58zm-16.83-.37l.68 7.11-5.25 4.26zm-7.3 11l-4.35-21.78 10.79 5.82zm9.66-14.2l6.22 3.31-5.44 4.81zm7.76 5.51l1 3.84-5.46.11zm10-1.86l10.39 8.66-15.26-2.62zm2.78-8.1l4.16 3.89-5.35.75zm-10.42 4.33l1.07-12.4 6.65 5.59zm-2.75 1.06l-6.79-3.63 7.86-8.66zM29.11 11.61l1.27-6.81L38 16.4zm2.25 26.11l-14-11.82 9.46-10.71zm3.31 4.14l5.14-4.14-6.09 14zm9.4-7.31l7-.14-14.56 17.46zm28.85 3L57.56 48.78 55.5 34.64zm-8.66-12.49l6-.84 3 8.43zm1.62-9.07l15.25-5.18-10 10.1zm-2.24-2l-6.35-5.37 21.07.34zm-21.52 3.9L32.64 3.42l18.47 4.57zm-26.73 6.28L4.65 14.64l19.92-.86zM32 41.72l-1.27 13.25-11.39-24zm21-5.59l2.05 14.1-19.39 6.8zm20.29 4.4l-8.14 20.78-6.77-9.86zm3.43-1.48l2.39 2.18-7.88 11.88zM73 23.86l12.7-1.67-9 11.87zm1.86-2.92l10.38-10.5 1.86 8.89zm-17.77-15l1.82-1.57L69.1 6.14zm-3.84-.18l-9.38-2.32 11.31.65zm-26.73 5.28l-18 .78 19.41-8.31zM13.59 26.11l-6.34 6.47-3.66-15.34zm1.54 2.21l12 25.34L8.38 35.2zM54 53.44l-2.87 6.11-12.75-.66zm2.75.37l5.65 8.23-8.57-2zm23.59-15.09L78 36.64l6.2-8.14z"></path></g><!----></svg>