<svg data-v-fde0c5aa="" xmlns="http://www.w3.org/2000/svg" viewBox="0 0 300 300" class="iconAbove"><!----><defs data-v-fde0c5aa=""><!----></defs><rect data-v-fde0c5aa="" fill="transparent" x="0" y="0" width="300px" height="300px" class="logo-background-square"></rect><defs data-v-fde0c5aa=""><!----></defs><g data-v-fde0c5aa="" id="615669ee-e20f-4688-9ac3-2b92287f647c" fill="#2e3034" transform="matrix(5.313713435078343,0,0,5.313713435078343,17.768240268584936,167.55507680615742)"><path d="M3.91 14.11L3.91 14.11Q2.65 14.11 1.77 13.44L1.77 13.44L1.77 13.44Q0.90 12.77 0.59 11.62L0.59 11.62L0.59 11.62Q0.42 11.05 0.42 10.36L0.42 10.36L0.42 10.36Q0.42 9.66 0.60 9.00L0.60 9.00L0.60 9.00Q0.92 7.90 1.80 7.27L1.80 7.27L1.80 7.27Q2.67 6.65 3.92 6.65L3.92 6.65L3.92 6.65Q5.15 6.65 6.01 7.27L6.01 7.27L6.01 7.27Q6.86 7.90 7.20 8.99L7.20 8.99L7.20 8.99Q7.39 9.62 7.39 10.33L7.39 10.33L7.39 10.33Q7.39 10.98 7.24 11.56L7.24 11.56L7.24 11.56Q6.94 12.74 6.06 13.43L6.06 13.43L6.06 13.43Q5.18 14.11 3.91 14.11L3.91 14.11ZM3.91 12.12L3.91 12.12Q4.31 12.12 4.58 11.87L4.58 11.87L4.58 11.87Q4.86 11.61 4.97 11.16L4.97 11.16L4.97 11.16Q5.05 10.79 5.05 10.36L5.05 10.36L5.05 10.36Q5.05 9.94 4.96 9.55L4.96 9.55L4.96 9.55Q4.84 9.11 4.58 8.88L4.58 8.88L4.58 8.88Q4.31 8.64 3.91 8.64L3.91 8.64L3.91 8.64Q3.49 8.64 3.23 8.88L3.23 8.88L3.23 8.88Q2.97 9.11 2.86 9.55L2.86 9.55L2.86 9.55Q2.76 9.86 2.76 10.36L2.76 10.36L2.76 10.36Q2.76 10.79 2.84 11.16L2.84 11.16L2.84 11.16Q2.97 11.61 3.23 11.87L3.23 11.87L3.23 11.87Q3.50 12.12 3.91 12.12L3.91 12.12ZM11.48 14.11L11.48 14.11Q10.49 14.11 9.75 13.84L9.75 13.84L9.75 13.84Q9.02 13.57 8.62 13.07L8.62 13.07L8.62 13.07Q8.22 12.57 8.22 11.93L8.22 11.93L8.22 11.86L8.22 11.86Q8.22 11.75 8.29 11.68L8.29 11.68L8.29 11.68Q8.36 11.61 8.47 11.61L8.47 11.61L10.19 11.61L10.19 11.61Q10.44 11.61 10.44 11.69L10.44 11.69L10.44 11.77L10.44 11.77Q10.44 12.04 10.73 12.21L10.73 12.21L10.73 12.21Q11.02 12.39 11.47 12.39L11.47 12.39L11.47 12.39Q11.86 12.39 12.10 12.26L12.10 12.26L12.10 12.26Q12.33 12.12 12.33 11.90L12.33 11.90L12.33 11.90Q12.33 11.68 12.08 11.57L12.08 11.57L12.08 11.57Q11.83 11.47 11.28 11.37L11.28 11.37L11.28 11.37Q10.40 11.20 9.86 10.96L9.86 10.96L9.86 10.96Q9.16 10.67 8.73 10.22L8.73 10.22L8.73 10.22Q8.30 9.77 8.30 9.02L8.30 9.02L8.30 9.02Q8.30 7.92 9.15 7.29L9.15 7.29L9.15 7.29Q10.00 6.65 11.38 6.65L11.38 6.65L11.38 6.65Q12.32 6.65 13.03 6.95L13.03 6.95L13.03 6.95Q13.73 7.25 14.13 7.80L14.13 7.80L14.13 7.80Q14.52 8.34 14.52 9.06L14.52 9.06L14.52 9.06Q14.52 9.13 14.45 9.18L14.45 9.18L14.45 9.18Q14.38 9.23 14.27 9.23L14.27 9.23L12.60 9.23L12.60 9.23Q12.35 9.23 12.35 9.14L12.35 9.14L12.35 9.06L12.35 9.06Q12.35 8.79 12.10 8.62L12.10 8.62L12.10 8.62Q11.84 8.46 11.41 8.46L11.41 8.46L11.41 8.46Q11.02 8.46 10.77 8.59L10.77 8.59L10.77 8.59Q10.53 8.72 10.53 8.96L10.53 8.96L10.53 8.96Q10.53 9.20 10.79 9.30L10.79 9.30L10.79 9.30Q11.06 9.41 11.69 9.53L11.69 9.53L11.69 9.53Q12.54 9.70 12.84 9.80L12.84 9.80L12.84 9.80Q13.69 10.08 14.18 10.56L14.18 10.56L14.18 10.56Q14.66 11.03 14.66 11.83L14.66 11.83L14.66 11.83Q14.66 12.92 13.80 13.52L13.80 13.52L13.80 13.52Q12.94 14.11 11.48 14.11L11.48 14.11ZM23.87 6.65L23.87 6.65Q24.96 6.65 25.58 7.32L25.58 7.32L25.58 7.32Q26.19 7.99 26.19 9.21L26.19 9.21L26.19 13.75L26.19 13.75Q26.19 13.86 26.12 13.93L26.12 13.93L26.12 13.93Q26.05 14 25.94 14L25.94 14L24.14 14L24.14 14Q24.02 14 23.95 13.93L23.95 13.93L23.95 13.93Q23.88 13.86 23.88 13.75L23.88 13.75L23.88 9.72L23.88 9.72Q23.88 9.24 23.64 8.94L23.64 8.94L23.64 8.94Q23.39 8.64 22.99 8.64L22.99 8.64L22.99 8.64Q22.58 8.64 22.32 8.93L22.32 8.93L22.32 8.93Q22.06 9.23 22.06 9.72L22.06 9.72L22.06 13.75L22.06 13.75Q22.06 13.86 21.99 13.93L21.99 13.93L21.99 13.93Q21.92 14 21.81 14L21.81 14L19.99 14L19.99 14Q19.88 14 19.81 13.93L19.81 13.93L19.81 13.93Q19.74 13.86 19.74 13.75L19.74 13.75L19.74 9.72L19.74 9.72Q19.74 9.24 19.48 8.94L19.48 8.94L19.48 8.94Q19.22 8.64 18.82 8.64L18.82 8.64L18.82 8.64Q18.44 8.64 18.19 8.88L18.19 8.88L18.19 8.88Q17.93 9.11 17.88 9.51L17.88 9.51L17.88 13.75L17.88 13.75Q17.88 13.86 17.81 13.93L17.81 13.93L17.81 13.93Q17.74 14 17.63 14L17.63 14L15.81 14L15.81 14Q15.69 14 15.62 13.93L15.62 13.93L15.62 13.93Q15.55 13.86 15.55 13.75L15.55 13.75L15.55 7.01L15.55 7.01Q15.55 6.90 15.62 6.83L15.62 6.83L15.62 6.83Q15.69 6.76 15.81 6.76L15.81 6.76L17.63 6.76L17.63 6.76Q17.74 6.76 17.81 6.83L17.81 6.83L17.81 6.83Q17.88 6.90 17.88 7.01L17.88 7.01L17.88 7.50L17.88 7.50Q17.88 7.57 17.91 7.58L17.91 7.58L17.91 7.58Q17.95 7.59 17.99 7.53L17.99 7.53L17.99 7.53Q18.55 6.65 19.75 6.65L19.75 6.65L19.75 6.65Q20.44 6.65 20.97 6.95L20.97 6.95L20.97 6.95Q21.49 7.25 21.78 7.83L21.78 7.83L21.78 7.83Q21.81 7.88 21.85 7.88L21.85 7.88L21.85 7.88Q21.88 7.87 21.91 7.81L21.91 7.81L21.91 7.81Q22.50 6.65 23.87 6.65L23.87 6.65ZM28.59 6.29L28.59 6.29Q27.97 6.29 27.59 5.91L27.59 5.91L27.59 5.91Q27.22 5.54 27.22 4.94L27.22 4.94L27.22 4.94Q27.22 4.35 27.59 3.99L27.59 3.99L27.59 3.99Q27.97 3.63 28.59 3.63L28.59 3.63L28.59 3.63Q29.20 3.63 29.58 3.99L29.58 3.99L29.58 3.99Q29.96 4.35 29.96 4.94L29.96 4.94L29.96 4.94Q29.96 5.54 29.58 5.91L29.58 5.91L29.58 5.91Q29.20 6.29 28.59 6.29L28.59 6.29ZM27.68 14L27.68 14Q27.57 14 27.50 13.93L27.50 13.93L27.50 13.93Q27.43 13.86 27.43 13.75L27.43 13.75L27.43 7.01L27.43 7.01Q27.43 6.90 27.50 6.83L27.50 6.83L27.50 6.83Q27.57 6.76 27.68 6.76L27.68 6.76L29.50 6.76L29.50 6.76Q29.61 6.76 29.68 6.83L29.68 6.83L29.68 6.83Q29.75 6.90 29.75 7.01L29.75 7.01L29.75 13.75L29.75 13.75Q29.75 13.86 29.68 13.93L29.68 13.93L29.68 13.93Q29.61 14 29.50 14L29.50 14L27.68 14ZM35.21 7.01L35.21 7.01Q35.21 6.90 35.28 6.83L35.28 6.83L35.28 6.83Q35.35 6.76 35.46 6.76L35.46 6.76L37.28 6.76L37.28 6.76Q37.39 6.76 37.46 6.83L37.46 6.83L37.46 6.83Q37.53 6.90 37.53 7.01L37.53 7.01L37.53 13.75L37.53 13.75Q37.53 13.86 37.46 13.93L37.46 13.93L37.46 13.93Q37.39 14 37.28 14L37.28 14L35.46 14L35.46 14Q35.35 14 35.28 13.93L35.28 13.93L35.28 13.93Q35.21 13.86 35.21 13.75L35.21 13.75L35.21 13.40L35.21 13.40Q35.21 13.33 35.17 13.31L35.17 13.31L35.17 13.31Q35.14 13.30 35.10 13.36L35.10 13.36L35.10 13.36Q34.51 14.11 33.36 14.11L33.36 14.11L33.36 14.11Q32.30 14.11 31.64 13.44L31.64 13.44L31.64 13.44Q30.98 12.77 30.98 11.56L30.98 11.56L30.98 7.01L30.98 7.01Q30.98 6.90 31.05 6.83L31.05 6.83L31.05 6.83Q31.12 6.76 31.23 6.76L31.23 6.76L33.05 6.76L33.05 6.76Q33.17 6.76 33.24 6.83L33.24 6.83L33.24 6.83Q33.31 6.90 33.31 7.01L33.31 7.01L33.31 11.03L33.31 11.03Q33.31 11.52 33.56 11.82L33.56 11.82L33.56 11.82Q33.81 12.11 34.24 12.11L34.24 12.11L34.24 12.11Q34.64 12.11 34.90 11.87L34.90 11.87L34.90 11.87Q35.15 11.63 35.21 11.24L35.21 11.24L35.21 7.01ZM47.03 6.65L47.03 6.65Q48.12 6.65 48.73 7.32L48.73 7.32L48.73 7.32Q49.35 7.99 49.35 9.21L49.35 9.21L49.35 13.75L49.35 13.75Q49.35 13.86 49.28 13.93L49.28 13.93L49.28 13.93Q49.21 14 49.10 14L49.10 14L47.29 14L47.29 14Q47.18 14 47.11 13.93L47.11 13.93L47.11 13.93Q47.04 13.86 47.04 13.75L47.04 13.75L47.04 9.72L47.04 9.72Q47.04 9.24 46.80 8.94L46.80 8.94L46.80 8.94Q46.55 8.64 46.14 8.64L46.14 8.64L46.14 8.64Q45.74 8.64 45.48 8.93L45.48 8.93L45.48 8.93Q45.22 9.23 45.22 9.72L45.22 9.72L45.22 13.75L45.22 13.75Q45.22 13.86 45.15 13.93L45.15 13.93L45.15 13.93Q45.08 14 44.97 14L44.97 14L43.15 14L43.15 14Q43.04 14 42.97 13.93L42.97 13.93L42.97 13.93Q42.90 13.86 42.90 13.75L42.90 13.75L42.90 9.72L42.90 9.72Q42.90 9.24 42.64 8.94L42.64 8.94L42.64 8.94Q42.38 8.64 41.97 8.64L41.97 8.64L41.97 8.64Q41.59 8.64 41.34 8.88L41.34 8.88L41.34 8.88Q41.09 9.11 41.03 9.51L41.03 9.51L41.03 13.75L41.03 13.75Q41.03 13.86 40.96 13.93L40.96 13.93L40.96 13.93Q40.89 14 40.78 14L40.78 14L38.96 14L38.96 14Q38.85 14 38.78 13.93L38.78 13.93L38.78 13.93Q38.71 13.86 38.71 13.75L38.71 13.75L38.71 7.01L38.71 7.01Q38.71 6.90 38.78 6.83L38.78 6.83L38.78 6.83Q38.85 6.76 38.96 6.76L38.96 6.76L40.78 6.76L40.78 6.76Q40.89 6.76 40.96 6.83L40.96 6.83L40.96 6.83Q41.03 6.90 41.03 7.01L41.03 7.01L41.03 7.50L41.03 7.50Q41.03 7.57 41.07 7.58L41.07 7.58L41.07 7.58Q41.10 7.59 41.15 7.53L41.15 7.53L41.15 7.53Q41.71 6.65 42.91 6.65L42.91 6.65L42.91 6.65Q43.60 6.65 44.12 6.95L44.12 6.95L44.12 6.95Q44.65 7.25 44.94 7.83L44.94 7.83L44.94 7.83Q44.97 7.88 45.00 7.88L45.00 7.88L45.00 7.88Q45.04 7.87 45.07 7.81L45.07 7.81L45.07 7.81Q45.65 6.65 47.03 6.65L47.03 6.65Z"></path></g><defs data-v-fde0c5aa=""><!----></defs><g data-v-fde0c5aa="" id="8cee852c-0003-4e53-9885-81046664a4bc" stroke="none" fill="#488eff" transform="matrix(1.4133937109271173,0,0,1.4133937109271173,79.33031175780958,42.48645457421155)"><path d="M77.8 22.2L50 10.6 22.2 22.2 10.6 50l11.5 27.8L50 89.4l27.8-11.5L89.4 50 77.8 22.2zm9.1 26.3l-12.5-3.4v-.6c0-2-1.1-3.8-2.7-4.8L77.3 25l9.6 23.5zM45.8 60.3c-.3-2.3-1.6-4.2-3.5-5.3l5-12.1c.9.3 1.8.4 2.7.4s1.9-.1 2.7-.4l6.2 15c-.8.6-1.4 1.4-1.6 2.4H45.8zm15.4-3.1c-.2 0-.4 0-.7.1l-6.2-15c1.3-.7 2.3-1.7 3.1-2.9l6.2 3.4c-.2.6-.3 1.2-.3 1.8 0 1.9 1 3.6 2.4 4.6L62 57.3c-.3-.1-.5-.1-.8-.1zM38.7 54c-.8 0-1.6.1-2.3.4l-5.6-11.6c.9-.7 1.5-1.8 1.5-3.1v-.1l9.3-2.3c.7 2.1 2.2 3.9 4.2 4.9l-5 12c-.7-.1-1.4-.2-2.1-.2zm30.1-14.9c-1.8 0-3.3.8-4.3 2.1l-6.2-3.4c.5-1.1.7-2.3.7-3.5 0-1-.2-1.9-.5-2.8l17-7.1L70 39.2c-.4-.1-.8-.1-1.2-.1zm-27.7-3.5l-9.3 2.3c-.7-1.3-2-2.2-3.6-2.2h-.3l-3.6-11.3 17.1 7.1c-.3.9-.5 1.8-.5 2.8.1.5.1.9.2 1.3zm-15.7 6.9c.7.7 1.7 1.2 2.8 1.2.3 0 .6 0 .9-.1l5.6 11.6c-1 .6-1.8 1.5-2.4 2.5L13.6 50l11.8-7.5zM63.6 58l3.8-8.1c.5.1 1 .2 1.5.2 2.2 0 4.2-1.3 5-3.2L86 50.1 64.5 59c-.2-.4-.6-.7-.9-1zm13.1-34zm-18.9 5.9c-1.4-2.5-4-4.2-6.9-4.5V12.9l24 9.9-17.1 7.1zm-8.7-17v12.5c-3 .3-5.5 2-6.9 4.5l-17.1-7.1 24-9.9zM22.8 25.2l3.5 11c-1.2.7-2 2-2 3.4 0 .5.1.9.3 1.4l-11.2 7.1 9.4-22.9zM12.7 49.5zm.5 2.1l18.5 7.7c-.2.6-.3 1.2-.3 1.9 0 1.7.6 3.2 1.6 4.5l-9.9 10-9.9-24.1zm10.3 24.9zm.9.4l9.9-10c1.2.9 2.7 1.5 4.4 1.5.7 0 1.4-.1 2-.3l7.7 18.7-24-9.9zm17.9-9.5c1.9-1.1 3.3-3.1 3.5-5.4h11.5c.2 1 .8 1.9 1.7 2.4l-9 21.7-7.7-18.7zm18.3-2.3c.2 0 .4.1.6.1.8 0 1.5-.2 2.1-.6l12.3 12.3-24 9.9 9-21.7zm16.3 10.5L64.5 63.3c.4-.6.6-1.3.6-2.1 0-.2 0-.4-.1-.6l21.7-9-9.8 24zm10.4-26.1z"></path></g><!----></svg>